<svg width="36" height="36" viewBox="0 0 36 36" fill="none" xmlns="http://www.w3.org/2000/svg">
<path fill-rule="evenodd" clip-rule="evenodd" d="M18.6343 7.62509C19.8311 6.06182 21.7161 5.05273 23.8347 5.05273C25.9543 5.05273 27.8383 6.06182 29.0361 7.62509H30.3801C31.2485 7.62509 32.0809 7.96982 32.6951 8.58401C33.3082 9.1971 33.6529 10.0295 33.6529 10.8978C33.6529 14.6756 33.6529 22.3927 33.6529 26.1705C33.6529 27.0389 33.3082 27.8713 32.6951 28.4844C32.0809 29.0985 31.2485 29.4433 30.3801 29.4433C25.0969 29.4433 11.6634 29.4433 6.38015 29.4433C5.51288 29.4433 4.68051 29.0985 4.06633 28.4844C3.45215 27.8713 3.10742 27.0389 3.10742 26.1705C3.10742 22.3927 3.10742 14.6756 3.10742 10.8978C3.10742 10.0295 3.45215 9.1971 4.06633 8.58401C4.68051 7.96982 5.51288 7.62509 6.38015 7.62509H18.6343ZM26.0165 17.7705C25.3347 18.0127 24.5994 18.1436 23.8347 18.1436C23.07 18.1436 22.3358 18.0127 21.6529 17.7705V22.1091L23.49 21.4971C23.7136 21.4229 23.9558 21.4229 24.1805 21.4971L26.0165 22.1091V17.7705ZM7.47106 21.8069H16.1983C16.8005 21.8069 17.2892 21.3182 17.2892 20.716C17.2892 20.1138 16.8005 19.6251 16.1983 19.6251H7.47106C6.86888 19.6251 6.38015 20.1138 6.38015 20.716C6.38015 21.3182 6.86888 21.8069 7.47106 21.8069ZM7.47106 17.4433H15.1074C15.7096 17.4433 16.1983 16.9545 16.1983 16.3524C16.1983 15.7502 15.7096 15.2615 15.1074 15.2615H7.47106C6.86888 15.2615 6.38015 15.7502 6.38015 16.3524C6.38015 16.9545 6.86888 17.4433 7.47106 17.4433ZM23.8347 7.23455C26.2434 7.23455 28.1983 9.18946 28.1983 11.5982C28.1983 14.0069 26.2434 15.9618 23.8347 15.9618C21.4271 15.9618 19.4711 14.0069 19.4711 11.5982C19.4711 9.18946 21.4271 7.23455 23.8347 7.23455Z" stroke="white"/>
</svg>
