<svg width="96" height="96" viewBox="0 0 96 96" fill="none" xmlns="http://www.w3.org/2000/svg">
<path d="M48 8C40.0888 8 32.3552 10.346 25.7772 14.7412C19.1992 19.1365 14.0723 25.3836 11.0448 32.6927C8.01733 40.0017 7.2252 48.0444 8.76861 55.8036C10.312 63.5629 14.1216 70.6902 19.7157 76.2843C25.3098 81.8784 32.4372 85.688 40.1964 87.2314C47.9556 88.7748 55.9983 87.9827 63.3074 84.9552C70.6164 81.9277 76.8635 76.8008 81.2588 70.2228C85.654 63.6448 88 55.9113 88 48C88 42.7471 86.9654 37.5457 84.9552 32.6927C82.945 27.8396 79.9986 23.4301 76.2843 19.7157C72.5699 16.0014 68.1604 13.055 63.3074 11.0448C58.4543 9.03463 53.2529 8 48 8V8ZM48 16C56.2189 15.9967 64.1191 19.1797 70.04 24.88C63.9281 28.4648 57.4515 31.388 50.72 33.6C47.37 27.8273 43.5291 22.3538 39.24 17.24C42.0879 16.42 45.0365 16.0026 48 16V16ZM31.56 20.6C35.7507 25.394 39.5119 30.5472 42.8 36C34.9484 37.9496 26.89 38.9435 18.8 38.96H17.36C19.6288 31.2786 24.6958 24.7272 31.56 20.6V20.6ZM24 69.24C18.795 63.395 15.9443 55.8264 16 48C16 47.6 16 47.2 16 46.84H18.72C28.1895 46.7553 37.6056 45.4102 46.72 42.84C48 45.28 49.2 47.8 50.36 50.4C44.126 52.5977 38.32 55.8593 33.2 60.04L32 61C29.1485 63.5609 26.4756 66.314 24 69.24V69.24ZM48 80C41.6244 80.0141 35.3928 78.1042 30.12 74.52C32.0674 72.2864 34.1514 70.1757 36.36 68.2L37.64 67.12C42.3727 63.1396 47.7959 60.0619 53.64 58.04C56.0454 64.544 57.9182 71.2326 59.24 78.04C55.6392 79.3547 51.8333 80.0184 48 80V80ZM66.52 74.04C65.2113 67.9863 63.5009 62.0264 61.4 56.2H62.76C62.9176 56.161 63.0824 56.161 63.24 56.2H63.68H64.08H66C70.2094 56.212 74.3872 56.9286 78.36 58.32C76.1773 64.6814 72.0316 70.1858 66.52 74.04V74.04ZM66 48C65.16 48 64.32 48 63.52 48C63.0021 47.9347 62.478 47.9347 61.96 48C60.8728 48.0668 59.7908 48.2004 58.72 48.4H58.32C57.16 45.72 55.96 43.12 54.64 40.4C61.8025 37.9402 68.6816 34.7219 75.16 30.8C78.3738 35.9575 80.0525 41.9234 80 48C80 48.68 80 49.36 80 50.04C75.4667 48.6409 70.744 47.9527 66 48V48Z" fill="white"/>
</svg>
