<svg width="560" height="560" viewBox="0 0 560 560" fill="none" xmlns="http://www.w3.org/2000/svg">
<g filter="url(#filter0_i_343_64)">
<path d="M126.31 236.937C124.158 236.956 122.039 236.406 120.169 235.342C118.797 234.571 117.593 233.534 116.626 232.292C115.66 231.049 114.951 229.627 114.541 228.108C114.131 226.588 114.029 225.002 114.239 223.443C114.449 221.883 114.969 220.381 115.767 219.025C131.143 193.36 177.926 133.458 280.009 133.458C324.248 133.458 363.048 145.078 395.276 167.983C421.801 186.781 436.667 208.059 443.749 218.307C444.647 219.599 445.278 221.057 445.604 222.596C445.93 224.135 445.945 225.724 445.648 227.269C445.351 228.814 444.747 230.284 443.873 231.593C442.999 232.901 441.872 234.021 440.559 234.887C437.875 236.662 434.605 237.321 431.443 236.726C428.281 236.13 425.475 234.327 423.62 231.697C410.803 213.266 371.725 157.184 280.009 157.184C190.487 157.184 150.012 208.792 136.829 230.924C135.77 232.772 134.236 234.304 132.387 235.361C130.538 236.418 128.44 236.962 126.31 236.937Z" fill="url(#paint0_linear_343_64)"/>
<path d="M331.482 471.41C330.464 471.422 329.449 471.307 328.46 471.067C254.409 452.724 226.759 378.697 225.635 375.619L225.459 374.941C224.853 372.804 209.995 322.041 232.804 292.309C243.26 278.751 259.163 271.797 280.161 271.797C299.685 271.797 313.769 277.866 323.451 290.427C331.426 300.683 334.617 313.332 337.703 325.518C344.187 350.896 348.868 364.222 375.817 365.594C387.652 366.192 395.428 359.27 399.838 353.376C411.761 337.306 413.835 311.107 404.847 287.979C393.299 258.127 352.314 201.846 280.05 201.846C249.202 201.846 220.857 211.759 198.128 230.389C179.314 245.821 164.409 267.61 157.231 290.004C143.92 331.699 161.378 397.24 161.545 397.838C161.953 399.363 162.051 400.955 161.834 402.519C161.617 404.083 161.088 405.587 160.28 406.944C159.473 408.3 158.401 409.481 157.13 410.417C155.858 411.353 154.412 412.025 152.876 412.393C149.774 413.218 146.473 412.795 143.679 411.214C140.885 409.634 138.822 407.022 137.931 403.939C137.133 400.948 118.487 331.045 133.863 282.859C150.611 230.645 202.299 178.008 280.074 178.008C316.018 178.008 349.977 190.226 378.321 213.298C400.269 231.243 418.197 255.344 427.576 279.437C439.499 310.198 436.301 344.723 419.449 367.277C408.22 382.318 392.23 390.182 374.517 389.328C328.372 387.015 320.078 354.803 314.032 331.308C307.812 307.207 303.832 295.587 280.074 295.587C267.026 295.587 257.863 299.176 252.16 306.609C244.384 316.777 243.778 332.672 244.64 344.204C245.205 352.239 246.568 360.197 248.707 367.963C250.605 372.748 275.321 433.36 334.513 448.026C336.043 448.389 337.485 449.051 338.757 449.976C340.029 450.901 341.104 452.069 341.92 453.413C342.736 454.757 343.277 456.249 343.512 457.804C343.746 459.359 343.669 460.945 343.286 462.469C342.563 465.043 341.019 467.31 338.888 468.925C336.756 470.539 334.156 471.412 331.482 471.41Z" fill="url(#paint1_linear_343_64)"/>
<path d="M236.348 465.927C234.688 465.931 233.045 465.6 231.516 464.955C229.987 464.309 228.603 463.362 227.448 462.171C197.812 431.067 181.048 396.287 174.739 352.798V352.567C171.198 323.776 176.382 283.015 201.783 254.99C220.533 234.31 246.891 223.798 279.989 223.798C319.131 223.798 349.892 241.998 369.072 276.347C382.989 301.302 385.749 326.169 385.82 327.19C385.966 328.764 385.8 330.351 385.332 331.861C384.864 333.37 384.102 334.773 383.091 335.988C382.079 337.203 380.839 338.206 379.439 338.941C378.039 339.675 376.509 340.127 374.934 340.269C371.758 340.614 368.573 339.695 366.068 337.712C363.563 335.729 361.938 332.841 361.544 329.67C359.443 314.749 354.615 300.343 347.3 287.17C332.434 260.939 309.816 247.604 279.901 247.604C254.061 247.604 233.844 255.38 219.935 270.733C199.885 292.864 196.009 326.958 198.761 349.512C204.288 387.969 219.066 418.562 245.161 445.901C246.25 447.034 247.1 448.375 247.661 449.843C248.222 451.311 248.481 452.877 248.425 454.448C248.368 456.018 247.997 457.561 247.332 458.985C246.667 460.41 245.723 461.685 244.555 462.737C242.306 464.776 239.383 465.912 236.348 465.927Z" fill="url(#paint2_linear_343_64)"/>
<path d="M372.866 431.675C346.947 431.675 324.911 424.497 307.278 410.23C271.852 381.686 267.88 335.198 267.704 333.237C267.455 330.016 268.495 326.829 270.595 324.375C272.696 321.921 275.685 320.403 278.906 320.153C282.126 319.904 285.314 320.943 287.767 323.044C290.221 325.145 291.739 328.134 291.989 331.354C292.077 332.04 295.618 370.066 322.925 391.966C339.083 404.87 360.68 409.99 387.293 407C390.474 406.614 393.678 407.503 396.205 409.473C398.733 411.442 400.377 414.332 400.78 417.511C400.954 419.081 400.813 420.671 400.367 422.186C399.92 423.701 399.177 425.113 398.179 426.338C397.181 427.563 395.949 428.577 394.556 429.32C393.162 430.064 391.634 430.523 390.061 430.67C384.353 431.336 378.612 431.672 372.866 431.675Z" fill="url(#paint3_linear_343_64)"/>
<path d="M393.368 114.745C383.256 108.165 347.399 88.5938 279.976 88.5938C209.204 88.5938 173.259 110.215 165.308 115.71C164.783 116.032 164.291 116.406 163.84 116.826C163.793 116.872 163.731 116.9 163.665 116.906C162.395 118.015 161.376 119.381 160.676 120.914C159.976 122.448 159.611 124.113 159.605 125.798C159.627 127.378 159.961 128.939 160.587 130.39C161.212 131.841 162.118 133.154 163.253 134.254C164.387 135.354 165.727 136.22 167.197 136.801C168.666 137.382 170.236 137.668 171.816 137.642C174.348 137.64 176.819 136.863 178.898 135.416C179.241 135.161 210.177 112.432 280 112.432C349.823 112.432 380.927 135.082 381.262 135.249C383.385 136.824 385.964 137.663 388.607 137.642C390.188 137.666 391.759 137.378 393.228 136.793C394.698 136.209 396.038 135.34 397.171 134.237C398.304 133.134 399.208 131.817 399.831 130.364C400.454 128.91 400.784 127.348 400.801 125.766C400.802 123.398 400.095 121.083 398.77 119.119C397.446 117.155 395.565 115.632 393.368 114.745Z" fill="url(#paint4_linear_343_64)"/>
</g>
<rect x="5.85417" y="5.85417" width="548.292" height="548.292" rx="274.146" stroke="url(#paint5_linear_343_64)" stroke-opacity="0.75" stroke-width="11.7083"/>
<defs>
<filter id="filter0_i_343_64" x="75.854" y="75.8416" width="408.333" height="408.333" filterUnits="userSpaceOnUse" color-interpolation-filters="sRGB">
<feFlood flood-opacity="0" result="BackgroundImageFix"/>
<feBlend mode="normal" in="SourceGraphic" in2="BackgroundImageFix" result="shape"/>
<feColorMatrix in="SourceAlpha" type="matrix" values="0 0 0 0 0 0 0 0 0 0 0 0 0 0 0 0 0 0 127 0" result="hardAlpha"/>
<feOffset/>
<feGaussianBlur stdDeviation="8.53733"/>
<feComposite in2="hardAlpha" operator="arithmetic" k2="-1" k3="1"/>
<feColorMatrix type="matrix" values="0 0 0 0 0.94902 0 0 0 0 0.94902 0 0 0 0 0.94902 0 0 0 1 0"/>
<feBlend mode="normal" in2="shape" result="effect1_innerShadow_343_64"/>
</filter>
<linearGradient id="paint0_linear_343_64" x1="279.997" y1="133.458" x2="279.997" y2="236.939" gradientUnits="userSpaceOnUse">
<stop stop-color="#F2F2F2"/>
<stop offset="1" stop-color="#F2F2F2" stop-opacity="0"/>
</linearGradient>
<linearGradient id="paint1_linear_343_64" x1="281.262" y1="178.008" x2="281.262" y2="471.411" gradientUnits="userSpaceOnUse">
<stop stop-color="#F2F2F2"/>
<stop offset="1" stop-color="#F2F2F2" stop-opacity="0"/>
</linearGradient>
<linearGradient id="paint2_linear_343_64" x1="279.807" y1="223.798" x2="279.807" y2="465.927" gradientUnits="userSpaceOnUse">
<stop stop-color="#F2F2F2"/>
<stop offset="1" stop-color="#F2F2F2" stop-opacity="0"/>
</linearGradient>
<linearGradient id="paint3_linear_343_64" x1="334.26" y1="320.117" x2="334.26" y2="431.675" gradientUnits="userSpaceOnUse">
<stop stop-color="#F2F2F2"/>
<stop offset="1" stop-color="#F2F2F2" stop-opacity="0"/>
</linearGradient>
<linearGradient id="paint4_linear_343_64" x1="280.203" y1="88.5938" x2="280.203" y2="137.643" gradientUnits="userSpaceOnUse">
<stop stop-color="#F2F2F2"/>
<stop offset="1" stop-color="#F2F2F2" stop-opacity="0"/>
</linearGradient>
<linearGradient id="paint5_linear_343_64" x1="393.286" y1="195.943" x2="39.487" y2="766.896" gradientUnits="userSpaceOnUse">
<stop stop-color="#EFF1F3"/>
<stop offset="1" stop-color="#091540"/>
</linearGradient>
</defs>
</svg>
