<svg width="96" height="96" viewBox="0 0 96 96" fill="none" xmlns="http://www.w3.org/2000/svg">
<path d="M69.36 21.84C68.4107 21.84 67.4826 22.1215 66.6933 22.6489C65.9039 23.1764 65.2887 23.926 64.9254 24.8031C64.5621 25.6802 64.467 26.6453 64.6522 27.5764C64.8374 28.5075 65.2946 29.3628 65.9659 30.0341C66.6372 30.7054 67.4925 31.1626 68.4236 31.3478C69.3547 31.533 70.3198 31.4379 71.1969 31.0746C72.074 30.7113 72.8236 30.0961 73.3511 29.3067C73.8785 28.5174 74.16 27.5893 74.16 26.64C74.16 25.367 73.6543 24.1461 72.7541 23.2459C71.8539 22.3457 70.633 21.84 69.36 21.84V21.84ZM87.76 31.52C87.6822 28.2012 87.0606 24.9176 85.92 21.8C84.9029 19.1325 83.3199 16.7171 81.28 14.72C79.2993 12.6697 76.8782 11.0967 74.2 10.12C71.0906 8.94464 67.8034 8.30884 64.48 8.24C60.24 8 58.88 8 48 8C37.12 8 35.76 8 31.52 8.24C28.1966 8.30884 24.9094 8.94464 21.8 10.12C19.1267 11.1066 16.7077 12.6782 14.72 14.72C12.6697 16.7007 11.0967 19.1218 10.12 21.8C8.94464 24.9094 8.30884 28.1966 8.24 31.52C8 35.76 8 37.12 8 48C8 58.88 8 60.24 8.24 64.48C8.30884 67.8034 8.94464 71.0906 10.12 74.2C11.0967 76.8782 12.6697 79.2993 14.72 81.28C16.7077 83.3218 19.1267 84.8934 21.8 85.88C24.9094 87.0554 28.1966 87.6912 31.52 87.76C35.76 88 37.12 88 48 88C58.88 88 60.24 88 64.48 87.76C67.8034 87.6912 71.0906 87.0554 74.2 85.88C76.8782 84.9033 79.2993 83.3303 81.28 81.28C83.329 79.2903 84.9133 76.8728 85.92 74.2C87.0606 71.0824 87.6822 67.7988 87.76 64.48C87.76 60.24 88 58.88 88 48C88 37.12 88 35.76 87.76 31.52V31.52ZM80.56 64C80.5309 66.5391 80.071 69.0548 79.2 71.44C78.5613 73.1808 77.5355 74.7537 76.2 76.04C74.9026 77.362 73.3329 78.3857 71.6 79.04C69.2148 79.911 66.6991 80.3709 64.16 80.4C60.16 80.6 58.68 80.64 48.16 80.64C37.64 80.64 36.16 80.64 32.16 80.4C29.5236 80.4494 26.8984 80.0434 24.4 79.2C22.7431 78.5123 21.2454 77.4911 20 76.2C18.6724 74.915 17.6594 73.3408 17.04 71.6C16.0634 69.1806 15.5218 66.6078 15.44 64C15.44 60 15.2 58.52 15.2 48C15.2 37.48 15.2 36 15.44 32C15.4579 29.4042 15.9318 26.8318 16.84 24.4C17.5442 22.7116 18.6251 21.2066 20 20C21.2153 18.6247 22.7172 17.5324 24.4 16.8C26.8382 15.9202 29.408 15.4603 32 15.44C36 15.44 37.48 15.2 48 15.2C58.52 15.2 60 15.2 64 15.44C66.5391 15.4691 69.0548 15.929 71.44 16.8C73.2577 17.4746 74.8892 18.5714 76.2 20C77.5108 21.2287 78.535 22.7309 79.2 24.4C80.089 26.8357 80.5492 29.4071 80.56 32C80.76 36 80.8 37.48 80.8 48C80.8 58.52 80.76 60 80.56 64ZM48 27.48C43.9432 27.4879 39.9798 28.6981 36.6106 30.9577C33.2414 33.2172 30.6175 36.4248 29.0705 40.175C27.5236 43.9252 27.1229 48.0499 27.9192 52.0277C28.7155 56.0056 30.6729 59.6581 33.5443 62.5239C36.4157 65.3897 40.072 67.3401 44.0514 68.1286C48.0308 68.9171 52.1547 68.5084 55.9019 66.9541C59.6491 65.3999 62.8515 62.7698 65.1045 59.3961C67.3575 56.0225 68.56 52.0568 68.56 48C68.5653 45.3004 68.0368 42.6264 67.005 40.1318C65.9731 37.6372 64.4582 35.3712 62.5475 33.4642C60.6367 31.5572 58.3678 30.0467 55.8712 29.0197C53.3746 27.9927 50.6996 27.4694 48 27.48V27.48ZM48 61.32C45.3656 61.32 42.7903 60.5388 40.5998 59.0752C38.4093 57.6116 36.7021 55.5313 35.6939 53.0973C34.6858 50.6634 34.422 47.9852 34.9359 45.4014C35.4499 42.8176 36.7185 40.4442 38.5813 38.5813C40.4442 36.7185 42.8176 35.4499 45.4014 34.9359C47.9852 34.422 50.6634 34.6858 53.0973 35.6939C55.5313 36.7021 57.6116 38.4093 59.0752 40.5998C60.5388 42.7903 61.32 45.3656 61.32 48C61.32 49.7492 60.9755 51.4813 60.3061 53.0973C59.6367 54.7134 58.6555 56.1818 57.4187 57.4187C56.1818 58.6555 54.7134 59.6367 53.0973 60.3061C51.4813 60.9755 49.7492 61.32 48 61.32V61.32Z" fill="white"/>
</svg>
