<svg width="44" height="44" viewBox="0 0 44 44" fill="none" xmlns="http://www.w3.org/2000/svg">
<path d="M27.5 11H27.5205" stroke="white" stroke-width="3.66667" stroke-linecap="round" stroke-linejoin="round"/>
<path d="M33 5.5H11C7.96243 5.5 5.5 7.96243 5.5 11V25.6667C5.5 28.7042 7.96243 31.1667 11 31.1667H33C36.0376 31.1667 38.5 28.7042 38.5 25.6667V11C38.5 7.96243 36.0376 5.5 33 5.5Z" stroke="white" stroke-width="3.66667" stroke-linecap="round" stroke-linejoin="round"/>
<path d="M5.5 23.8349L12.8333 16.5015C13.6694 15.697 14.6179 15.2734 15.5833 15.2734C16.5488 15.2734 17.4972 15.697 18.3333 16.5015L25.6667 23.8349" stroke="white" stroke-width="3.66667" stroke-linecap="round" stroke-linejoin="round"/>
<path d="M23.8307 22.0002L27.4974 18.3336C28.3335 17.529 29.2819 17.1055 30.2474 17.1055C31.2128 17.1055 32.1613 17.529 32.9974 18.3336L38.4974 23.8336M14.6641 38.5002H14.6824M21.9974 38.5002H22.0157M29.3307 38.5002H29.3491" stroke="white" stroke-width="3.66667" stroke-linecap="round" stroke-linejoin="round"/>
</svg>
