<svg width="188" height="188" viewBox="0 0 188 188" fill="none" xmlns="http://www.w3.org/2000/svg">
<path d="M105.044 94.0008L138.727 60.3958C140.202 58.9208 141.031 56.9202 141.031 54.8341C141.031 52.7481 140.202 50.7475 138.727 49.2725C137.252 47.7974 135.251 46.9687 133.165 46.9688C131.079 46.9688 129.079 47.7974 127.604 49.2725L93.9985 82.9558L60.3935 49.2725C58.9185 47.7974 56.9179 46.9687 54.8319 46.9688C52.7458 46.9688 50.7453 47.7974 49.2702 49.2725C47.7952 50.7475 46.9665 52.7481 46.9665 54.8341C46.9665 56.9202 47.7952 58.9208 49.2702 60.3958L82.9535 94.0008L49.2702 127.606C48.536 128.334 47.9533 129.2 47.5556 130.155C47.1579 131.11 46.9531 132.133 46.9531 133.167C46.9531 134.202 47.1579 135.225 47.5556 136.18C47.9533 137.135 48.536 138.001 49.2702 138.729C49.9984 139.463 50.8648 140.046 51.8194 140.444C52.7739 140.841 53.7978 141.046 54.8319 141.046C55.866 141.046 56.8898 140.841 57.8444 140.444C58.799 140.046 59.6653 139.463 60.3935 138.729L93.9985 105.046L127.604 138.729C128.332 139.463 129.198 140.046 130.153 140.444C131.107 140.841 132.131 141.046 133.165 141.046C134.199 141.046 135.223 140.841 136.178 140.444C137.132 140.046 137.999 139.463 138.727 138.729C139.461 138.001 140.044 137.135 140.442 136.18C140.839 135.225 141.044 134.202 141.044 133.167C141.044 132.133 140.839 131.11 140.442 130.155C140.044 129.2 139.461 128.334 138.727 127.606L105.044 94.0008Z" fill="white"/>
</svg>
