<svg width="36" height="36" viewBox="0 0 36 36" fill="none" xmlns="http://www.w3.org/2000/svg">
<g clip-path="url(#clip0_531_566)">
<path d="M29.25 4.5H28.29L27.645 2.565C27.3964 1.81859 26.9193 1.16926 26.2813 0.708937C25.6433 0.248611 24.8767 0.000597351 24.09 0L11.91 0C11.1233 0.000597351 10.3567 0.248611 9.71866 0.708937C9.08067 1.16926 8.60361 1.81859 8.355 2.565L7.71 4.5H6.75C6.15326 4.5 5.58097 4.73705 5.15901 5.15901C4.73705 5.58097 4.5 6.15326 4.5 6.75V8.25C4.5 8.84674 4.73705 9.41903 5.15901 9.84099C5.58097 10.2629 6.15326 10.5 6.75 10.5H7.5L7.815 15.75L8.61 29.25L8.88 33.75C8.87997 34.048 8.93915 34.3431 9.05409 34.618C9.16904 34.893 9.33746 35.1424 9.54958 35.3517C9.7617 35.561 10.0133 35.7261 10.2897 35.8374C10.5662 35.9487 10.862 36.004 11.16 36H24.825C25.3991 36.001 25.9518 35.7826 26.3701 35.3894C26.7884 34.9962 27.0406 34.458 27.075 33.885L27.345 29.385L28.14 15.885L28.5 10.5H29.295C29.8839 10.4882 30.4447 10.246 30.857 9.82529C31.2693 9.4046 31.5001 8.83902 31.5 8.25V6.75C31.5 6.15326 31.2629 5.58097 30.841 5.15901C30.419 4.73705 29.8467 4.5 29.25 4.5ZM9.75 3C9.90724 2.55503 10.2004 2.17078 10.588 1.90159C10.9757 1.6324 11.4381 1.49191 11.91 1.5H24.09C24.5568 1.4982 25.0125 1.64161 25.3942 1.91037C25.7758 2.17913 26.0644 2.55992 26.22 3L26.715 4.5H9.285L9.75 3ZM25.56 33.75C25.5485 33.941 25.4645 34.1204 25.325 34.2515C25.1856 34.3825 25.0014 34.4553 24.81 34.455H11.16C10.9686 34.4553 10.7844 34.3825 10.645 34.2515C10.5055 34.1204 10.4215 33.941 10.41 33.75L10.2 30H25.815L25.56 33.75ZM25.89 28.5H10.11L9.405 16.5H26.595L25.89 28.5ZM26.685 15H9.315L9 10.5H27L26.685 15ZM30 8.25C30 8.44891 29.921 8.63968 29.7803 8.78033C29.6397 8.92098 29.4489 9 29.25 9H6.75C6.55109 9 6.36032 8.92098 6.21967 8.78033C6.07902 8.63968 6 8.44891 6 8.25V6.75C6 6.55109 6.07902 6.36032 6.21967 6.21967C6.36032 6.07902 6.55109 6 6.75 6H29.25C29.4489 6 29.6397 6.07902 29.7803 6.21967C29.921 6.36032 30 6.55109 30 6.75V8.25ZM18 26.25C18.7417 26.25 19.4667 26.0301 20.0834 25.618C20.7001 25.206 21.1807 24.6203 21.4645 23.9351C21.7484 23.2498 21.8226 22.4958 21.6779 21.7684C21.5333 21.041 21.1761 20.3728 20.6516 19.8484C20.1272 19.3239 19.459 18.9668 18.7316 18.8221C18.0042 18.6774 17.2502 18.7516 16.5649 19.0355C15.8797 19.3193 15.294 19.7999 14.882 20.4166C14.4699 21.0333 14.25 21.7583 14.25 22.5C14.25 23.4946 14.6451 24.4484 15.3483 25.1517C16.0516 25.8549 17.0054 26.25 18 26.25ZM18 20.25C18.445 20.25 18.88 20.382 19.25 20.6292C19.62 20.8764 19.9084 21.2278 20.0787 21.639C20.249 22.0501 20.2936 22.5025 20.2068 22.939C20.12 23.3754 19.9057 23.7763 19.591 24.091C19.2763 24.4057 18.8754 24.62 18.439 24.7068C18.0025 24.7936 17.5501 24.749 17.139 24.5787C16.7278 24.4084 16.3764 24.12 16.1292 23.75C15.882 23.38 15.75 22.945 15.75 22.5C15.75 21.9033 15.9871 21.331 16.409 20.909C16.831 20.4871 17.4033 20.25 18 20.25Z" fill="white" stroke="white"/>
</g>
<defs>
<clipPath id="clip0_531_566">
<rect width="36" height="36" fill="white"/>
</clipPath>
</defs>
</svg>
