<svg width="48" height="48" viewBox="0 0 48 48" fill="none" xmlns="http://www.w3.org/2000/svg">
<path fill-rule="evenodd" clip-rule="evenodd" d="M16.8418 0C11.9478 0 8.01185 4.106 8.01185 9.136C8.01185 12.194 9.46785 14.91 11.7058 16.568C10.5524 17.4322 9.61747 18.5546 8.97597 19.8452C8.33448 21.1358 8.00428 22.5588 8.01185 24C8.01185 27.06 9.46785 29.774 11.7058 31.432C10.5524 32.2962 9.61747 33.4186 8.97597 34.7092C8.33448 35.9998 8.00428 37.4228 8.01185 38.864C8.01185 43.894 11.9478 48 16.8418 48C21.7338 48 25.6718 43.894 25.6718 38.864V31.14C27.2185 32.4296 29.1681 33.1365 31.1818 33.138C36.0759 33.136 40.0118 29.03 40.0118 24C40.0199 22.5587 39.6899 21.1356 39.0484 19.8449C38.4068 18.5542 37.4716 17.4318 36.3178 16.568C37.4713 15.7038 38.4062 14.5814 39.0477 13.2908C39.6892 12.0002 40.0194 10.5772 40.0118 9.136C40.0118 4.106 36.0759 0 31.1818 0H16.8418V0ZM11.3298 9.136C11.3298 5.954 13.8138 3.406 16.8418 3.406H22.3518V14.866H16.8418C13.8138 14.866 11.3298 12.316 11.3298 9.136V9.136ZM31.1818 14.864H25.6718V3.404H31.1818C34.2118 3.404 36.6938 5.954 36.6938 9.136C36.6938 12.316 34.2118 14.864 31.1818 14.864ZM11.3318 24C11.3318 20.82 13.8158 18.27 16.8438 18.27H22.3538V29.73H16.8418C13.8118 29.73 11.3298 27.18 11.3298 24H11.3318ZM25.6718 24C25.6718 20.82 28.1558 18.27 31.1839 18.27C34.2139 18.27 36.6958 20.818 36.6958 24C36.6958 27.18 34.2139 29.73 31.1839 29.73C28.1558 29.73 25.6738 27.182 25.6738 24H25.6718ZM11.3318 38.864C11.3318 35.684 13.8158 33.136 16.8438 33.136H22.3538V38.864C22.3538 42.046 19.8738 44.594 16.8438 44.594C13.8158 44.594 11.3318 42.046 11.3318 38.864Z" fill="white"/>
</svg>
