<svg width="96" height="96" viewBox="0 0 96 96" fill="none" xmlns="http://www.w3.org/2000/svg">
<path d="M84.8313 25.6665H87.9951V16.333H58.0742L48.1309 52.9995H47.8589L38.0059 16.333H7.99512V25.6663H11.0686C11.7791 25.7819 12.4383 26.1089 12.9603 26.6046C13.4823 27.1003 13.8429 27.7417 13.9951 28.4453V67.7666C13.8335 68.445 13.4651 69.0563 12.9408 69.5161C12.4165 69.9759 11.7622 70.2613 11.0686 70.333H7.99512V79.6665H31.9951V70.333H25.9951V28.9998H26.3452L40.1755 79.6665H51.0235L65.0347 28.9998H65.3289V70.333H59.3286V79.6665H87.9951V70.333H84.8313C84.1535 70.2448 83.5188 69.9518 83.012 69.4932C82.5052 69.0346 82.1504 68.4322 81.9951 67.7666V28.4456C82.1421 27.7547 82.4896 27.1226 82.9941 26.6283C83.4986 26.134 84.1376 25.7994 84.8313 25.6665V25.6665Z" fill="white"/>
</svg>
