<svg width="256" height="256" viewBox="0 0 256 256" fill="none" xmlns="http://www.w3.org/2000/svg">
<path d="M108 144H40C37.8783 144 35.8434 143.157 34.3431 141.657C32.8429 140.157 32 138.122 32 136V72C32 69.8783 32.8429 67.8434 34.3431 66.3431C35.8434 64.8429 37.8783 64 40 64H100C102.122 64 104.157 64.8429 105.657 66.3431C107.157 67.8434 108 69.8783 108 72V160C108 170.609 103.786 180.783 96.2843 188.284C88.7828 195.786 78.6087 200 68 200M224 144H156C153.878 144 151.843 143.157 150.343 141.657C148.843 140.157 148 138.122 148 136V72C148 69.8783 148.843 67.8434 150.343 66.3431C151.843 64.8429 153.878 64 156 64H216C218.122 64 220.157 64.8429 221.657 66.3431C223.157 67.8434 224 69.8783 224 72V160C224 170.609 219.786 180.783 212.284 188.284C204.783 195.786 194.609 200 184 200" stroke="black" stroke-width="16" stroke-linecap="round" stroke-linejoin="round"/>
</svg>
